<svg width="25" height="27" viewBox="0 0 25 27" fill="none" xmlns="http://www.w3.org/2000/svg">
<g clip-path="url(#clip0_101118_4)">
<path d="M2.59046 25.4929C2.58904 26.9811 3.79961 28.194 5.28789 28.1954L5.54336 28.1957L15.8016 13.8054L5.57072 -0.604329L5.31525 -0.604572C3.82697 -0.605986 2.6141 0.604581 2.61269 2.09286L2.59046 25.4929ZM3.79094 24.9831L3.8122 2.60728L11.6016 13.8014L3.79094 24.9831ZM6.8043 28.1969L21.4879 28.2108C22.9762 28.2122 24.189 27.0017 24.1904 25.5134L24.2127 2.11338C24.2141 0.625101 23.0035 -0.587769 21.5152 -0.589183L6.83165 -0.603132L9.38995 2.9993L23.0118 3.01224L22.9913 24.6122L9.36943 24.5993L6.8043 28.1969Z" fill="#6A4835"/>
</g>
<defs>
<clipPath id="clip0_101118_4">
<rect width="23.935" height="25.0569" fill="white" transform="translate(0.935287 1.06766) rotate(-0.29742)"/>
</clipPath>
</defs>
</svg>
